<?xml version="1.0" standalone="no"?>
<!DOCTYPE svg PUBLIC "-//W3C//DTD SVG 20010904//EN"
 "http://www.w3.org/TR/2001/REC-SVG-20010904/DTD/svg10.dtd">
<svg version="1.0" xmlns="http://www.w3.org/2000/svg"
 width="87.000000pt" height="116.000000pt" viewBox="0 0 87.000000 116.000000"
 preserveAspectRatio="xMidYMid meet">

<g transform="translate(0.000000,116.000000) scale(0.100000,-0.100000)"
fill="currentColor" stroke="none">
<path d="M247 1093 c-13 -12 -7 -21 48 -78 30 -31 55 -59 55 -63 0 -4 -25 -32
-55 -62 -54 -53 -68 -80 -42 -80 15 0 147 131 147 146 0 10 -131 144 -141 144
-3 0 -9 -3 -12 -7z"/>
<path d="M487 844 c-4 -4 -7 -11 -7 -15 0 -11 255 -6 258 6 2 11 -240 20 -251
9z"/>
<path d="M65 648 c-10 -25 -1 -223 10 -223 13 0 19 215 6 228 -7 7 -12 5 -16
-5z"/>
<path d="M186 639 c-24 -19 -26 -26 -26 -99 0 -73 2 -80 26 -99 15 -12 34 -21
44 -21 10 0 29 9 44 21 24 19 26 27 26 92 0 63 -3 74 -27 99 -32 33 -51 35
-87 7z m82 -87 c3 -67 -7 -92 -39 -92 -24 0 -39 30 -39 77 0 69 9 84 44 81 31
-3 31 -3 34 -66z"/>
<path d="M374 647 c-2 -7 -3 -60 -2 -118 4 -144 22 -135 26 14 2 78 -1 117 -8
117 -6 0 -13 -6 -16 -13z"/>
<path d="M495 635 c-22 -21 -25 -33 -25 -95 0 -62 3 -74 25 -95 30 -30 54 -31
89 -4 24 19 26 26 26 99 0 73 -2 80 -26 99 -35 27 -59 26 -89 -4z m73 -27 c7
-7 12 -37 12 -68 0 -58 -11 -80 -42 -80 -33 0 -52 96 -28 141 12 21 40 25 58
7z"/>
<path d="M240 205 c0 -96 3 -115 15 -115 12 0 15 19 15 115 0 96 -3 115 -15
115 -12 0 -15 -19 -15 -115z"/>
<path d="M341 294 c-37 -47 -22 -180 21 -197 21 -8 72 1 76 13 2 5 9 16 16 23
7 7 14 41 15 77 2 54 -1 69 -19 88 -30 32 -82 30 -109 -4z m78 -18 c7 -9 11
-40 9 -78 -3 -58 -5 -63 -27 -66 -32 -5 -41 12 -41 79 0 70 29 102 59 65z"/>
<path d="M540 300 c-16 -16 -20 -33 -20 -90 0 -62 3 -74 25 -95 28 -29 61 -32
93 -9 20 14 22 24 22 98 0 68 -3 86 -18 99 -25 23 -78 21 -102 -3z m79 -24
c18 -21 10 -126 -10 -139 -34 -21 -49 -2 -49 66 0 61 11 87 36 87 6 0 17 -6
23 -14z"/>
<path d="M720 205 c0 -96 3 -115 15 -115 12 0 15 19 15 115 0 96 -3 115 -15
115 -12 0 -15 -19 -15 -115z"/>
</g>
</svg>
