<?xml version="1.0" standalone="no"?>
<!DOCTYPE svg PUBLIC "-//W3C//DTD SVG 20010904//EN"
 "http://www.w3.org/TR/2001/REC-SVG-20010904/DTD/svg10.dtd">
<svg version="1.0" 

xmlns="http://www.w3.org/2000/svg"

 width="726.000000pt" 
 height="785.000000pt" 
 viewBox="0 0 726.000000 785.000000"
 preserveAspectRatio="xMidYMid meet"
  fill="currentColor"
 >


<path d="M4227 7750 c-3 -12 -14 -20 -27 -20 -13 0 -39 -5 -60 -11 -30 -9 -43
-8 -69 6 -32 16 -33 16 -26 -4 10 -31 -39 -48 -81 -28 -30 15 -31 15 -27 -7 4
-19 -2 -24 -35 -34 -22 -7 -47 -9 -56 -6 -9 3 -16 2 -16 -4 0 -6 -21 -18 -46
-28 -37 -14 -50 -15 -65 -6 -16 10 -19 9 -19 -7 0 -19 -52 -45 -93 -46 -10 0
-21 -5 -25 -11 -4 -6 -25 -19 -47 -28 -22 -10 -47 -22 -55 -27 -47 -28 -91
-49 -104 -49 -9 0 -20 -9 -25 -19 -6 -10 -24 -24 -41 -29 -36 -13 -38 -24 -7
-37 16 -8 34 -6 72 8 28 11 61 21 75 24 21 5 125 74 140 94 3 4 26 10 53 14
44 7 47 9 47 36 0 18 5 29 14 29 8 0 16 7 20 15 3 8 17 15 31 15 16 0 25 -6
25 -15 0 -15 37 -21 109 -16 19 2 37 -3 42 -10 6 -10 10 -10 23 0 9 8 16 20
16 27 0 13 13 13 82 0 17 -4 34 33 20 44 -4 3 -8 17 -10 33 -2 19 2 27 13 27
9 0 15 -9 15 -25 0 -18 4 -23 15 -19 8 4 15 15 15 25 0 14 7 19 30 19 17 0 30
-4 30 -10 0 -5 6 -10 13 -10 11 0 47 -65 47 -84 0 -4 -9 -4 -20 -1 -12 4 -20
2 -20 -6 0 -8 13 -10 45 -6 27 4 45 3 45 -3 0 -25 28 -7 32 21 4 22 0 33 -14
40 -13 7 -18 19 -16 37 4 36 33 40 62 9 17 -18 30 -23 50 -20 14 3 29 9 32 14
9 16 43 10 64 -11 24 -24 26 -40 5 -40 -8 0 -15 -5 -15 -10 0 -19 30 -22 55
-6 13 9 36 16 50 16 22 0 25 -3 20 -20 -4 -11 -2 -20 4 -20 6 0 11 9 11 20 0
26 25 36 46 19 13 -10 17 -10 25 2 5 8 9 20 9 27 0 6 9 12 20 12 16 0 20 -7
20 -32 0 -57 11 -64 70 -45 53 17 90 22 90 11 0 -3 -5 -14 -10 -25 -17 -31 -3
-40 37 -24 45 19 79 19 87 0 4 -11 22 -15 71 -15 73 0 120 -18 130 -50 4 -12
15 -20 29 -20 31 0 58 -32 61 -72 5 -45 6 -47 14 -18 7 23 12 25 60 24 42 -2
63 -9 106 -38 58 -38 62 -45 43 -64 -9 -9 -3 -12 30 -12 31 0 45 -5 54 -20 7
-11 18 -20 25 -20 16 0 55 -51 49 -66 -2 -6 17 -37 44 -69 47 -55 66 -100 48
-111 -4 -3 -37 11 -72 30 -35 20 -67 36 -71 36 -4 0 7 -16 24 -35 31 -36 39
-55 21 -55 -5 0 -32 21 -61 46 -28 25 -53 43 -56 41 -2 -3 3 -22 11 -42 23
-54 20 -59 -20 -36 -37 22 -84 28 -84 11 0 -6 12 -22 28 -35 31 -27 25 -42
-10 -25 -28 15 -118 101 -118 113 0 5 11 6 25 3 l25 -6 -18 34 c-16 33 -17 33
-20 9 -3 -22 -7 -24 -35 -18 -18 4 -34 7 -37 7 -30 1 -26 -8 22 -39 30 -21 79
-57 108 -80 34 -28 62 -43 80 -43 16 0 33 -6 37 -13 4 -7 30 -26 57 -41 27
-16 64 -39 84 -52 19 -13 39 -24 45 -24 5 0 -8 12 -31 28 -23 15 -66 47 -97
72 -31 25 -68 55 -83 67 -15 12 -24 24 -20 28 7 7 84 -29 111 -53 23 -20 35
-7 14 16 -17 18 -23 42 -11 42 3 0 25 -11 49 -25 45 -27 58 -45 49 -69 -6 -15
29 -40 40 -29 3 4 17 -4 30 -16 l23 -22 6 21 c4 15 0 23 -16 29 -29 11 -63 49
-76 83 -13 34 -6 38 47 28 33 -6 42 -4 42 6 0 9 12 14 35 14 30 0 38 -5 48
-27 7 -16 25 -47 40 -70 28 -45 34 -63 17 -63 -17 0 -11 -30 11 -61 11 -16 29
-29 39 -29 23 0 59 -36 67 -68 3 -13 16 -35 29 -49 16 -17 23 -36 22 -55 -2
-20 5 -33 20 -44 19 -13 21 -18 10 -31 -10 -12 -9 -17 5 -28 9 -7 17 -19 17
-26 0 -8 9 -20 20 -27 23 -14 27 -50 5 -58 -22 -9 -19 -22 20 -67 22 -26 33
-47 30 -58 -4 -12 4 -25 25 -40 37 -28 40 -52 5 -43 -37 9 -30 -10 15 -40 35
-23 39 -30 34 -54 -11 -50 -13 -54 -33 -47 -34 10 -33 -14 1 -31 38 -19 78
-53 78 -67 0 -5 -7 -7 -15 -4 -29 12 -26 -16 6 -49 38 -39 35 -49 -10 -33 -18
6 -34 9 -37 6 -3 -3 15 -26 40 -51 63 -63 63 -80 0 -50 -54 26 -52 8 4 -49 56
-57 67 -84 30 -72 -75 23 -74 24 -29 -57 23 -41 41 -78 41 -82 0 -4 -10 -7
-22 -6 -45 4 -50 2 -38 -20 6 -12 10 -33 8 -47 -3 -29 -38 -56 -45 -36 -2 7
-16 29 -29 49 -14 20 -23 42 -20 50 8 21 -17 64 -38 64 -18 0 -18 -1 -3 -18
12 -13 16 -36 16 -79 -1 -33 4 -70 10 -81 13 -25 14 -32 2 -32 -14 0 -52 57
-67 99 -8 22 -13 29 -14 16 0 -11 -6 -37 -14 -59 l-13 -39 -18 47 c-10 25 -22
46 -26 46 -13 0 -11 58 1 65 6 4 -4 17 -22 29 -27 18 -33 29 -31 55 1 27 -1
30 -14 19 -12 -10 -18 -8 -34 12 -18 24 -19 24 -19 4 0 -13 8 -24 20 -27 11
-3 25 -19 31 -36 6 -16 20 -33 31 -37 18 -5 19 -11 12 -52 -4 -26 -9 -63 -10
-82 -1 -19 -3 -38 -3 -42 -1 -5 -5 -8 -11 -8 -5 0 -12 16 -16 36 -5 26 -9 32
-15 22 -7 -10 -13 -8 -29 12 -22 28 -25 47 -10 52 12 4 -7 68 -20 68 -5 0 -3
-13 3 -30 6 -16 8 -33 4 -37 -8 -7 -56 44 -57 60 0 5 -16 28 -35 51 -19 24
-35 48 -35 55 0 18 28 13 50 -9 11 -11 20 -15 20 -9 0 7 7 17 16 23 11 9 13
20 8 40 -4 19 -10 24 -17 17 -11 -11 -66 -4 -82 11 -13 13 22 38 53 38 13 0
20 4 17 10 -3 6 -17 10 -31 10 -13 0 -24 3 -25 8 0 4 -1 23 -2 42 -1 19 -8 41
-14 48 -19 20 -16 66 5 85 16 15 21 15 38 2 10 -8 29 -15 42 -15 32 0 62 -18
62 -35 0 -8 5 -15 11 -15 6 0 8 7 5 16 -3 9 -7 32 -7 52 -1 21 -3 29 -6 17 -8
-34 -20 -37 -39 -12 -11 13 -25 22 -32 19 -6 -2 -12 1 -12 7 0 6 -18 8 -50 4
-35 -4 -50 -2 -50 6 0 14 50 60 65 61 6 0 24 12 40 26 l30 25 -37 -6 c-48 -8
-48 3 2 39 43 32 52 51 20 41 -29 -9 -25 7 10 40 34 33 38 47 13 44 -31 -3
-34 0 -22 24 11 20 11 21 -4 9 -13 -11 -17 -10 -27 8 -6 12 -9 28 -6 37 3 8
-3 27 -15 41 -27 36 -99 159 -99 170 0 24 36 22 57 -2 12 -14 25 -26 28 -26
13 0 -27 60 -79 118 -31 35 -56 67 -56 72 0 15 -31 41 -42 34 -5 -4 -7 -21 -3
-40 6 -36 -9 -48 -20 -15 -4 13 -12 18 -21 14 -15 -5 -54 22 -54 39 0 4 11 8
25 8 30 0 34 25 6 40 -31 16 -41 12 -41 -15 0 -40 -26 -29 -39 18 -7 23 -22
52 -34 65 -27 29 -75 30 -85 2 -7 -20 -9 -19 -37 10 -35 37 -48 38 -35 4 25
-66 -1 -86 -42 -31 -43 56 -67 112 -66 156 0 23 -1 43 -3 45 -2 2 -22 6 -44
10 l-40 6 32 -17 c40 -20 49 -41 26 -58 -12 -9 -17 -26 -17 -54 1 -23 -2 -41
-6 -41 -4 0 -24 27 -44 60 -21 33 -49 66 -64 74 -37 19 -102 29 -102 17 0 -15
34 -31 65 -31 17 0 28 -7 34 -22 5 -13 27 -45 50 -73 22 -27 41 -54 41 -60 0
-5 -22 -11 -49 -11 -48 -2 -49 -1 -75 45 -63 113 -91 120 -83 21 3 -38 2 -70
-3 -70 -5 0 -20 15 -34 33 -31 39 -34 27 -5 -20 24 -38 24 -39 -12 -48 -25 -6
-27 -4 -38 54 -15 76 -23 79 -15 6 7 -58 2 -65 -28 -38 -18 16 -18 15 -16 -18
3 -28 -1 -34 -19 -37 -12 -2 -31 6 -42 17 -12 12 -23 21 -26 21 -3 0 -9 0 -14
0 -5 0 -16 15 -25 33 -20 42 -21 11 0 -39 15 -35 15 -39 -2 -51 -28 -20 -34
-16 -35 25 l-1 37 -11 -33 -12 -33 -28 29 c-19 20 -25 34 -21 47 6 15 4 17
-10 12 -10 -4 -19 -7 -21 -7 -3 0 20 -64 40 -114 8 -17 5 -18 -31 -12 -21 4
-46 14 -54 21 -8 7 -25 16 -37 19 -13 4 -23 14 -23 22 0 8 -4 14 -10 14 -5 0
-10 -9 -10 -20 0 -17 -3 -19 -18 -11 -15 8 -19 23 -21 66 -1 48 1 55 17 55 10
0 25 -11 32 -25 7 -14 17 -25 22 -25 5 0 20 -11 32 -24 l24 -23 6 30 c5 25 -1
38 -37 81 -24 28 -52 63 -62 79 -21 33 -46 37 -37 5 4 -17 2 -20 -11 -15 -13
5 -15 1 -11 -22 5 -25 2 -28 -34 -39 -56 -17 -67 -15 -80 13 -7 16 -17 23 -27
19 -17 -7 -22 25 -6 41 6 6 4 15 -4 22 -11 10 -20 6 -44 -24 -17 -21 -31 -46
-31 -56 0 -26 -24 -16 -28 11 -2 16 -10 22 -28 22 -21 0 -24 -4 -19 -20 7 -22
-10 -60 -26 -60 -7 0 -10 16 -7 40 3 36 2 39 -17 34 -11 -3 -31 -13 -43 -21
-32 -20 -38 -10 -25 37 l10 39 -37 -29 c-47 -37 -70 -63 -48 -55 9 4 18 -1 22
-11 8 -20 8 -20 -24 -27 -24 -6 -25 -4 -27 40 -2 52 -16 74 -35 55 -28 -28
-66 -3 -52 33 11 27 -5 16 -21 -15 -14 -27 -14 -29 1 -23 14 5 16 2 10 -20
-11 -44 -47 -97 -66 -97 -30 0 -35 38 -8 60 36 30 12 23 -34 -10 -22 -16 -51
-30 -64 -30 -12 0 -36 -12 -53 -26 -21 -17 -37 -23 -51 -19 -28 9 -85 -14 -96
-39 -6 -14 -18 -21 -36 -21 -38 -1 -104 -67 -112 -110 -5 -27 -21 -44 -79 -87
-99 -73 -109 -82 -101 -102 3 -9 1 -23 -6 -31 -10 -12 -9 -15 4 -15 38 0 3
-63 -63 -114 -48 -36 -71 -76 -35 -62 9 3 18 6 20 6 2 0 4 8 4 18 0 20 29 52
48 52 6 0 14 -9 17 -21 8 -24 -38 -79 -65 -79 -9 0 -25 -9 -36 -21 -16 -17
-16 -22 -4 -30 8 -5 21 -7 28 -4 17 6 15 -11 -4 -40 -17 -27 -59 -30 -74 -5
-8 13 -12 13 -27 -2 -16 -17 -16 -18 0 -18 9 0 17 -7 17 -16 0 -10 6 -14 18
-10 9 2 36 10 60 17 23 7 45 9 49 5 9 -8 -36 -45 -54 -46 -7 0 -20 -11 -28
-24 -17 -26 -9 -62 19 -85 9 -7 13 -17 10 -22 -3 -5 0 -9 6 -9 8 0 10 -9 6
-24 -5 -20 -3 -23 14 -19 26 7 26 -9 0 -32 -18 -16 -19 -20 -5 -27 25 -15 18
-24 -45 -54 -67 -31 -75 -44 -30 -44 40 0 38 -14 -7 -45 -24 -16 -31 -25 -20
-25 20 0 22 -11 5 -28 -17 -17 -38 -15 -38 5 0 16 -1 16 -17 0 -17 -17 -17
-19 0 -31 9 -7 17 -16 17 -19 0 -3 -23 -22 -51 -42 -42 -30 -50 -40 -45 -59 5
-20 -4 -30 -56 -66 l-61 -43 23 -19 22 -18 -23 -19 c-15 -12 -28 -16 -33 -10
-19 18 -48 8 -80 -27 -22 -24 -32 -43 -28 -56 2 -11 -4 -28 -16 -41 -11 -12
-27 -37 -36 -54 -19 -37 -35 -41 -59 -15 -19 21 -22 43 -8 58 13 12 -17 74
-35 74 -23 0 -16 27 12 49 26 20 25 41 -2 41 -19 0 -18 24 1 40 9 7 14 19 11
25 -2 7 5 27 16 45 14 24 16 35 8 40 -7 4 -14 30 -16 58 -4 45 -1 54 23 76 25
23 25 25 5 19 -24 -6 -31 14 -10 35 6 6 12 23 13 38 l1 26 -21 -26 c-22 -28
-55 -35 -55 -12 0 28 21 71 43 88 20 16 20 18 3 18 -15 0 -17 5 -13 28 23 113
29 128 65 165 32 35 34 38 13 32 -23 -7 -24 -5 -17 25 3 18 14 39 24 46 10 8
12 13 5 14 -26 0 -13 48 20 74 23 19 27 26 15 26 -31 0 -19 30 30 77 44 42 45
44 20 40 -24 -4 -28 -1 -28 20 0 13 11 35 24 48 15 15 22 31 19 44 -7 27 13
59 50 81 29 18 30 20 9 20 -20 0 -22 4 -17 23 4 12 20 33 36 47 22 19 26 29
18 37 -15 15 -5 41 18 50 40 15 71 45 66 65 -5 18 24 89 40 96 4 2 7 12 7 21
0 22 25 46 64 60 24 10 27 15 22 37 -11 44 1 64 39 64 39 0 52 14 35 35 -17
20 4 45 36 45 13 0 24 6 24 13 0 6 15 19 33 27 17 8 33 22 33 30 1 8 2 20 3
25 0 6 16 12 33 13 33 3 77 32 49 32 -9 0 -12 8 -9 25 4 19 1 25 -13 25 -12 0
-19 -7 -19 -20 0 -20 -33 -45 -60 -45 -8 0 -16 -9 -18 -20 -4 -24 -40 -54 -64
-55 -10 0 -18 -9 -20 -22 -3 -20 -8 -22 -37 -20 -30 3 -33 1 -26 -15 14 -35
10 -47 -28 -68 -44 -24 -71 -59 -63 -82 8 -21 -36 -95 -67 -112 -17 -9 -23
-19 -20 -32 6 -22 -36 -64 -83 -81 -40 -14 -44 -28 -9 -28 42 0 29 -26 -35
-66 -33 -22 -60 -43 -60 -47 0 -4 9 -3 19 3 11 5 27 10 35 10 29 0 16 -27 -29
-61 -44 -33 -55 -49 -35 -49 20 0 9 -25 -27 -62 -29 -30 -34 -41 -25 -50 18
-18 15 -33 -13 -66 -21 -26 -23 -31 -9 -36 19 -7 12 -51 -13 -78 -8 -9 -12
-25 -9 -36 5 -13 -4 -31 -27 -57 -19 -21 -32 -45 -30 -54 2 -9 -8 -32 -22 -51
-25 -34 -25 -35 -5 -42 30 -11 24 -43 -15 -87 -39 -43 -42 -51 -20 -51 23 0
18 -22 -10 -49 -17 -16 -24 -30 -19 -43 4 -12 -5 -30 -25 -54 -39 -43 -39 -54
-2 -54 17 0 33 -5 36 -11 11 -16 -16 -100 -42 -135 -13 -18 -21 -38 -17 -47 3
-9 -1 -26 -10 -39 -23 -32 -20 -48 9 -48 14 0 25 -3 25 -7 0 -3 -14 -30 -30
-60 -28 -50 -29 -53 -10 -53 27 0 25 -16 -5 -52 -33 -39 -34 -85 -2 -90 32 -4
33 -39 2 -68 -14 -13 -25 -34 -25 -47 0 -13 -4 -23 -9 -23 -5 0 -47 16 -95 35
-120 48 -239 78 -318 79 -62 0 -70 -3 -125 -41 -58 -41 -58 -41 -61 -96 -2
-44 2 -67 22 -106 14 -27 37 -80 52 -118 23 -60 25 -77 19 -147 -3 -44 -10
-85 -14 -90 -34 -42 -55 -285 -29 -341 6 -14 33 -39 59 -55 32 -20 54 -43 68
-72 12 -24 29 -56 39 -73 9 -16 35 -61 56 -99 60 -104 173 -185 259 -186 37 0
109 30 122 50 4 6 -10 4 -30 -4 -53 -22 -93 -20 -151 9 -84 42 -145 104 -188
191 -22 44 -46 83 -53 87 -7 5 -23 28 -34 53 -15 31 -35 52 -66 70 -59 35 -73
66 -73 160 0 72 14 147 46 242 24 71 18 160 -16 248 -16 42 -37 85 -46 95 -21
24 -28 97 -12 128 20 37 94 71 155 71 97 0 251 -45 422 -122 36 -16 45 -17 53
-6 23 35 118 -152 118 -232 0 -23 5 -50 10 -61 13 -23 38 -25 46 -4 4 8 15 15
25 15 12 0 19 7 20 20 2 35 23 85 38 95 6 3 11 22 11 40 0 19 6 52 14 72 7 21
19 61 25 88 7 28 23 71 36 96 13 26 21 49 18 53 -3 3 3 18 13 33 10 15 17 31
16 36 -4 12 38 87 48 87 6 0 10 13 10 29 0 22 9 37 34 56 24 18 32 31 29 45
-7 25 21 68 53 82 17 8 23 17 19 30 -8 23 20 69 56 94 16 10 29 25 29 31 0 18
69 92 101 109 15 7 30 22 34 33 3 10 20 26 38 35 36 17 106 86 88 86 -15 0
-14 12 4 36 14 18 16 18 28 2 13 -16 17 -14 48 20 21 23 24 28 7 13 -30 -26
-63 -22 -56 7 4 15 0 17 -29 14 -40 -5 -45 14 -7 28 39 15 67 13 60 -5 -8 -21
4 -19 31 6 18 18 25 20 37 10 12 -10 19 -10 37 2 21 15 21 15 1 26 -11 6 -26
17 -34 23 -7 7 -33 26 -57 43 -55 37 -87 79 -112 147 -22 60 -24 89 -8 105 6
6 12 41 12 78 1 62 2 66 26 72 14 3 46 21 70 39 24 19 59 39 78 46 18 7 33 18
33 25 0 20 35 33 82 32 24 -1 88 12 143 30 173 53 378 86 463 74 26 -4 31 -9
27 -24 -7 -22 4 -24 40 -7 21 9 31 9 46 0 25 -16 29 -15 29 7 0 26 17 36 36
20 14 -11 13 -14 -4 -28 -10 -9 -22 -24 -25 -33 -5 -15 -3 -16 12 -6 15 9 25
7 50 -12 32 -22 33 -22 72 -4 26 13 39 26 39 39 0 11 -4 16 -8 10 -12 -17 -42
-17 -42 -1 0 18 36 40 50 31 6 -4 25 -8 42 -10 17 -3 33 -6 35 -9 10 -10 -8
-25 -37 -31 -40 -9 -38 -25 3 -26 17 -1 50 -3 72 -5 61 -5 95 -5 154 2 36 4
61 2 79 -7 20 -11 26 -11 29 -1 3 6 16 12 29 12 14 0 24 6 24 14 0 11 9 13 36
9 34 -6 35 -5 28 21 -8 31 -20 30 221 29 115 0 151 -4 200 -21 33 -11 83 -25
111 -31 55 -11 276 -119 340 -167 22 -15 33 -22 27 -14 -15 16 -17 46 -4 55
13 7 91 -70 91 -90 0 -8 -4 -15 -10 -15 -9 0 -9 -4 5 -45 5 -16 8 -17 15 -5 7
12 13 12 34 1 14 -8 23 -18 20 -23 -3 -4 0 -8 5 -8 6 0 11 -9 11 -20 0 -11 -3
-20 -7 -20 -13 1 -43 27 -37 32 2 3 -2 8 -11 12 -14 5 -14 2 1 -27 9 -17 21
-40 25 -49 5 -9 9 -45 10 -80 2 -58 -2 -72 -40 -143 -24 -43 -60 -99 -82 -124
-29 -33 -36 -47 -27 -52 21 -14 -5 -44 -36 -42 -14 1 -26 -2 -26 -6 0 -15 63
-102 80 -111 18 -10 280 -389 280 -405 0 -3 27 -42 61 -87 71 -96 163 -274
174 -335 4 -24 10 -43 15 -43 14 0 22 -90 21 -222 -1 -76 3 -137 10 -155 7
-15 18 -68 24 -118 l12 -90 2 115 c1 111 2 118 37 190 20 41 44 91 53 110 10
20 34 45 56 58 36 21 33 23 -10 6 -11 -5 -15 1 -15 26 0 24 9 40 35 64 19 18
35 39 35 47 0 18 158 109 177 102 7 -3 10 -10 6 -16 -4 -7 0 -8 13 -2 33 14
137 35 176 35 31 0 40 -5 53 -30 22 -42 20 -163 -4 -231 -32 -91 -33 -95 -12
-59 29 54 51 150 51 229 0 64 -3 73 -31 106 -25 29 -38 35 -70 35 -113 0 -279
-69 -360 -150 -32 -33 -54 -48 -59 -41 -3 7 -3 37 1 69 5 31 11 89 14 127 3
39 8 79 10 90 2 11 0 27 -5 35 -7 12 -10 8 -10 -13 0 -16 -4 -26 -9 -22 -6 3
-8 -9 -4 -29 3 -19 2 -43 -2 -53 -4 -10 -8 -37 -9 -60 -1 -23 -5 -45 -9 -50
-10 -9 -27 16 -27 41 0 10 -8 25 -17 32 -17 13 -17 15 3 32 26 22 36 70 24
113 -13 46 -4 69 26 67 13 -1 24 -6 24 -11 0 -4 5 -5 11 -2 6 5 8 33 5 78 -3
40 -8 140 -11 222 -4 83 -11 177 -16 210 -14 95 -12 123 11 130 27 9 25 18
-10 58 -32 37 -51 97 -31 97 18 0 12 36 -9 55 -13 11 -18 25 -14 37 3 10 -3
30 -15 47 -12 16 -18 36 -15 44 3 8 1 18 -5 22 -6 3 -11 19 -11 34 0 20 -7 31
-26 39 -23 11 -54 64 -54 93 0 7 10 9 25 7 32 -7 24 6 -15 22 -33 14 -40 36
-12 43 13 4 12 5 -5 6 -17 1 -24 9 -29 36 -4 25 -11 35 -25 35 -11 0 -19 7
-19 15 0 8 -7 15 -15 15 -17 0 -17 0 -20 60 -2 25 2 51 8 58 7 9 2 21 -21 45
-17 18 -32 43 -34 57 -2 18 -19 34 -61 60 -32 19 -67 50 -79 70 -11 19 -25 38
-31 41 -5 4 -7 19 -5 33 3 14 1 26 -3 26 -5 0 -9 6 -9 14 0 8 -16 20 -35 26
-19 6 -35 18 -35 26 0 8 -7 17 -15 20 -18 7 -20 30 -2 37 6 3 -3 6 -20 6 -25
1 -33 6 -33 19 0 10 5 23 11 29 17 17 -18 43 -57 43 -31 0 -34 3 -34 30 0 28
-2 30 -40 30 -36 0 -40 3 -40 25 0 21 -5 25 -28 25 -28 0 -101 46 -102 64 0
19 -52 57 -71 51 -28 -9 -62 13 -56 36 5 17 -1 19 -47 19 -46 0 -53 3 -69 29
-15 25 -23 29 -89 35 -39 3 -79 13 -87 20 -9 8 -32 16 -51 18 -27 2 -36 8 -38
25 -3 19 -8 21 -33 16 -21 -4 -33 -1 -42 11 -10 13 -18 14 -50 5 -44 -12 -67
-7 -67 15 0 13 -9 14 -44 10 -39 -6 -44 -4 -49 16 -5 19 -10 21 -39 14 -18 -4
-44 -7 -58 -6 -14 1 -42 3 -62 5 -23 1 -43 9 -52 22 -9 11 -16 15 -16 9 0 -18
-111 -17 -131 2 -15 13 -17 13 -22 -1 -8 -19 -51 -20 -67 0 -17 20 -27 19 -33
-5z m1033 -886 c17 -31 30 -58 28 -60 -2 -2 -14 -1 -26 3 -23 6 -52 58 -52 94
0 33 17 20 50 -37z m-237 -1 c28 -39 27 -53 -2 -53 -16 0 -51 55 -51 80 0 22
28 8 53 -27z m-796 16 c13 -13 5 -51 -11 -46 -13 4 -21 57 -9 57 5 0 14 -5 20
-11z m1273 -61 c26 -43 26 -68 0 -68 -18 0 -60 62 -60 90 0 23 41 8 60 -22z
m-1195 -20 c-9 -41 -19 -52 -33 -36 -17 21 -3 68 20 68 17 0 19 -5 13 -32z
m-634 -18 c35 -19 20 -46 -31 -56 -16 -3 -30 13 -30 35 0 8 6 11 15 7 9 -3 15
0 15 9 0 18 5 18 31 5z m329 -10 c0 -10 -32 -30 -49 -30 -15 0 -14 27 2 33 21
9 47 7 47 -3z m150 -5 c7 -8 11 -15 9 -16 -48 -8 -69 -7 -69 4 0 30 39 37 60
12z m780 -25 c0 -11 -7 -20 -15 -20 -8 0 -15 2 -15 4 0 2 -3 11 -6 20 -4 12 0
16 15 16 14 0 21 -6 21 -20z m536 -18 c27 -21 41 -62 22 -62 -19 0 -33 12 -47
37 -22 43 -11 55 25 25z m-2126 -8 c0 -16 -23 -44 -35 -44 -18 0 -20 21 -3 38
12 12 38 17 38 6z m2020 -9 c59 -31 21 -47 -49 -21 -19 7 -37 18 -39 24 -5 17
53 15 88 -3z m778 3 c15 -15 16 -45 1 -53 -13 -8 -38 23 -39 48 0 20 20 23 38
5z m-2678 -37 c-1 -15 -29 -41 -44 -41 -20 0 -21 18 0 41 14 16 44 16 44 0z
m2098 -13 c16 -16 15 -48 -1 -48 -11 0 -37 39 -37 55 0 10 26 5 38 -7z m186
-53 c21 -32 20 -45 -3 -45 -11 0 -21 9 -25 23 -14 52 1 64 28 22z m-124 -15
c25 -25 26 -40 2 -40 -28 0 -56 25 -49 44 8 21 23 20 47 -4z m-2342 -12 c4
-20 -27 -32 -44 -17 -19 15 -18 27 4 32 25 7 37 2 40 -15z m-244 -374 c22 -9
20 -34 -3 -34 -11 0 -26 -3 -35 -6 -19 -7 -22 16 -4 34 14 14 20 14 42 6z m64
-106 c19 -19 14 -28 -13 -28 -24 0 -34 18 -18 33 9 10 17 9 31 -5z m2708 -259
c3 -6 0 -17 -8 -25 -13 -13 -16 -13 -28 1 -12 14 -11 18 1 26 19 12 26 11 35
-2z m-2766 -69 c0 -11 -48 -25 -56 -17 -4 3 -3 10 1 16 8 14 55 14 55 1z m-60
-60 c0 -5 -13 -10 -30 -10 -16 0 -30 5 -30 10 0 6 14 10 30 10 17 0 30 -4 30
-10z m-700 -66 c0 -16 -23 -44 -35 -44 -16 0 -18 9 -9 34 6 15 44 24 44 10z
m4167 -106 c1 -47 -14 -49 -33 -3 -18 45 -18 47 9 43 18 -2 22 -10 24 -40z
m-4107 -42 c0 -16 -26 -46 -41 -46 -13 0 -11 34 3 48 16 16 38 15 38 -2z
m-100 -151 c0 -8 -7 -15 -15 -15 -8 0 -15 7 -15 15 0 8 7 15 15 15 8 0 15 -7
15 -15z m450 0 c0 -16 -27 -32 -37 -21 -7 7 16 36 28 36 5 0 9 -7 9 -15z
m3513 8 c3 -5 8 -22 11 -39 7 -30 5 -31 -18 -27 -22 5 -26 11 -26 39 0 23 5
34 14 34 8 0 17 -3 19 -7z m-13 -124 c0 -47 -17 -49 -38 -6 -15 31 -9 47 19
47 16 0 19 -7 19 -41z m-3560 3 c0 -13 -12 -22 -22 -16 -10 6 -1 24 13 24 5 0
9 -4 9 -8z m3686 -33 c8 -13 -16 -50 -27 -43 -12 7 -28 46 -23 56 5 8 43 -2
50 -13z m-80 -2 c7 -19 -14 -69 -26 -62 -17 10 -12 75 5 75 9 0 18 -6 21 -13z
m-3656 -68 c0 -39 -80 -35 -88 4 -3 13 5 16 42 15 38 0 46 -4 46 -19z m-360
-44 c0 -8 -7 -15 -16 -15 -14 0 -14 3 -4 15 7 8 14 15 16 15 2 0 4 -7 4 -15z
m4067 -26 c-3 -22 -8 -44 -12 -47 -10 -11 -25 21 -25 56 0 26 4 32 21 32 19 0
21 -4 16 -41z m-3742 -21 c-15 -53 -28 -68 -60 -68 -17 0 -34 3 -38 6 -9 10 4
34 19 34 7 0 21 11 30 25 21 33 58 35 49 3z m-281 -57 c10 -16 -5 -41 -25 -41
-12 0 -19 7 -19 19 0 25 33 41 44 22z m4061 -31 c0 -22 -29 -18 -33 3 -3 14 1
18 15 15 10 -2 18 -10 18 -18z m-3881 -16 c7 -19 -13 -49 -25 -37 -10 10 0 53
11 53 4 0 11 -7 14 -16z m52 -36 c-3 -13 -6 -29 -6 -35 0 -7 -11 -13 -25 -13
-29 0 -32 16 -9 48 21 30 48 30 40 0z m-26 -95 c0 -17 -19 -35 -29 -29 -18 12
-12 36 9 36 11 0 20 -3 20 -7z m3950 -68 c0 -37 -55 -115 -81 -115 -17 0 -9
58 12 94 15 25 28 36 45 36 14 0 24 -6 24 -15z m-3980 -25 c0 -11 -4 -20 -9
-20 -14 0 -23 18 -16 30 10 17 25 11 25 -10z m-44 -31 c20 -22 11 -51 -20 -57
-13 -3 -16 5 -16 37 0 46 8 51 36 20z"/>
<path d="M4386 7575 c4 -8 12 -15 20 -15 8 0 11 6 8 15 -4 8 -12 15 -20 15 -8
0 -11 -6 -8 -15z"/>
<path d="M4098 7553 c-19 -5 -25 -33 -7 -33 19 0 50 21 44 31 -6 9 -9 10 -37
2z"/>
<path d="M3995 7499 c-9 -14 -2 -20 14 -10 8 6 9 11 3 15 -6 3 -14 1 -17 -5z"/>
<path d="M4810 7453 c0 -12 5 -25 11 -28 16 -11 17 -2 2 25 -12 24 -13 24 -13
3z"/>
<path d="M4428 7453 c6 -2 18 -2 25 0 6 3 1 5 -13 5 -14 0 -19 -2 -12 -5z"/>
<path d="M4480 7456 c0 -2 7 -7 16 -10 8 -3 12 -2 9 4 -6 10 -25 14 -25 6z"/>
<path d="M4626 7431 c-5 -7 -3 -18 3 -24 14 -14 20 -6 11 17 -5 15 -9 16 -14
7z"/>
<path d="M3595 7355 c-39 -34 -39 -49 -1 -20 11 8 28 15 38 15 11 0 18 7 18
20 0 27 -8 25 -55 -15z"/>
<path d="M4912 7365 c0 -16 2 -22 5 -12 2 9 2 23 0 30 -3 6 -5 -1 -5 -18z"/>
<path d="M4185 7370 c3 -5 11 -10 16 -10 6 0 7 5 4 10 -3 6 -11 10 -16 10 -6
0 -7 -4 -4 -10z"/>
<path d="M4080 7361 c0 -10 30 -24 37 -17 3 2 -5 9 -16 16 -12 6 -21 7 -21 1z"/>
<path d="M3228 7329 c-10 -5 -26 -9 -35 -7 -11 2 -19 -5 -21 -17 -3 -11 -9
-23 -16 -27 -8 -6 -8 -8 1 -8 22 0 43 12 43 26 0 8 10 14 25 14 16 0 25 6 25
15 0 17 0 17 -22 4z"/>
<path d="M5385 7300 c-8 -13 -1 -24 14 -19 6 3 7 10 2 18 -6 10 -10 10 -16 1z"/>
<path d="M5470 7248 c0 -35 14 -57 28 -43 3 3 0 10 -7 15 -8 4 -11 14 -8 22 3
8 1 21 -4 29 -6 10 -9 3 -9 -23z"/>
<path d="M4080 7235 c0 -19 2 -35 5 -35 10 0 24 40 19 54 -11 28 -24 17 -24
-19z"/>
<path d="M4940 7250 c0 -6 7 -10 15 -10 8 0 15 2 15 4 0 2 -7 6 -15 10 -8 3
-15 1 -15 -4z"/>
<path d="M5085 7238 c-9 -22 11 -58 33 -58 13 0 14 2 4 9 -7 4 -17 21 -21 37
-7 23 -10 26 -16 12z"/>
<path d="M3427 7233 c-4 -3 -7 -11 -7 -17 0 -6 5 -5 12 2 6 6 9 14 7 17 -3 3
-9 2 -12 -2z"/>
<path d="M3311 7204 c0 -11 3 -14 6 -6 3 7 2 16 -1 19 -3 4 -6 -2 -5 -13z"/>
<path d="M5230 7192 c0 -11 7 -23 16 -26 24 -9 25 -4 3 23 -18 22 -19 22 -19
3z"/>
<path d="M3213 7172 c-8 -5 -9 -13 -3 -22 7 -12 10 -12 16 3 8 21 3 29 -13 19z"/>
<path d="M5308 7150 c19 -8 21 -13 12 -30 -16 -29 -7 -25 18 10 l23 30 -38 -1
c-33 0 -35 -1 -15 -9z"/>
<path d="M5471 7138 c0 -10 -9 -18 -18 -18 -14 0 -13 -3 5 -16 28 -19 30 -17
21 21 -4 17 -7 22 -8 13z"/>
<path d="M3094 7095 c-10 -8 -14 -15 -8 -15 6 0 17 7 24 15 16 19 9 19 -16 0z"/>
<path d="M3621 7046 c-25 -27 -27 -25 24 -41 16 -5 19 16 6 48 -6 16 -9 16
-30 -7z"/>
<path d="M3176 7017 c-14 -10 -16 -16 -7 -22 15 -9 35 8 30 24 -3 8 -10 7 -23
-2z"/>
<path d="M3258 7003 c-21 -14 -38 -30 -38 -34 0 -13 6 -11 50 11 43 22 76 26
82 9 2 -6 12 -1 23 12 l20 22 -37 -7 c-24 -4 -38 -3 -38 4 0 16 -22 11 -62
-17z"/>
<path d="M4820 7016 c0 -18 57 -60 64 -48 3 5 -6 14 -19 20 -14 7 -25 18 -25
27 0 8 -4 15 -10 15 -5 0 -10 -6 -10 -14z"/>
<path d="M4547 6991 c-3 -12 3 -27 14 -37 18 -16 19 -16 19 2 0 10 -7 27 -14
37 -13 17 -14 16 -19 -2z"/>
<path d="M4682 6994 c2 -12 22 -26 55 -39 29 -11 53 -26 53 -34 0 -11 3 -11
15 -1 14 12 13 16 -6 37 -13 12 -36 27 -53 32 -17 5 -39 12 -50 16 -14 6 -17
4 -14 -11z"/>
<path d="M4612 6988 c8 -7 22 -24 32 -38 9 -13 16 -20 16 -14 0 16 -40 64 -53
64 -6 0 -4 -6 5 -12z"/>
<path d="M4077 6983 c-12 -12 -7 -22 8 -17 8 4 15 10 15 15 0 11 -14 12 -23 2z"/>
<path d="M3307 6946 c-16 -15 -24 -31 -21 -40 5 -13 9 -13 32 1 51 32 53 34
37 49 -18 18 -18 18 -48 -10z"/>
<path d="M3423 6963 c-7 -2 -13 -11 -13 -18 0 -8 -13 -23 -30 -35 -50 -35 -34
-40 30 -9 33 16 67 29 75 29 22 0 18 -28 -5 -42 -35 -22 -23 -37 15 -19 22 10
34 23 35 37 0 11 5 25 12 32 19 19 2 25 -38 12 -32 -11 -39 -10 -49 4 -13 17
-13 17 -32 9z"/>
<path d="M4480 6952 c0 -11 16 -34 35 -51 47 -41 57 -40 17 2 -18 18 -32 38
-32 44 0 7 -4 15 -10 18 -5 3 -10 -3 -10 -13z"/>
<path d="M2990 6940 c0 -5 5 -10 11 -10 5 0 7 5 4 10 -3 6 -8 10 -11 10 -2 0
-4 -4 -4 -10z"/>
<path d="M4870 6941 c0 -6 4 -13 10 -16 6 -3 7 1 4 9 -7 18 -14 21 -14 7z"/>
<path d="M3051 6874 c0 -11 3 -14 6 -6 3 7 2 16 -1 19 -3 4 -6 -2 -5 -13z"/>
<path d="M3124 6862 c-17 -11 -24 -61 -7 -55 7 3 13 13 13 22 0 9 5 22 12 29
13 13 0 16 -18 4z"/>
<path d="M3270 6831 c0 -12 6 -21 15 -21 8 0 15 4 15 9 0 5 -7 14 -15 21 -13
10 -15 9 -15 -9z"/>
<path d="M2873 6789 c-20 -20 -16 -29 12 -29 14 0 25 -4 25 -10 0 -22 38 -9
42 14 4 22 3 23 -26 15 -17 -5 -32 -9 -33 -9 -1 0 -3 7 -5 16 -2 12 -5 13 -15
3z"/>
<path d="M3076 6793 c-4 -5 -20 -12 -36 -18 -21 -7 -27 -14 -21 -24 7 -10 16
-6 42 18 19 17 31 31 28 31 -3 0 -9 -3 -13 -7z"/>
<path d="M3236 6771 c-4 -7 -5 -15 -2 -18 9 -9 19 4 14 18 -4 11 -6 11 -12 0z"/>
<path d="M6206 6603 c6 -4 14 -15 17 -23 5 -11 6 -9 4 4 -1 11 -9 21 -17 23
-10 3 -11 2 -4 -4z"/>
<path d="M5740 6445 c7 -9 15 -13 17 -11 7 7 -7 26 -19 26 -6 0 -6 -6 2 -15z"/>
<path d="M2811 6419 c-34 -21 -61 -25 -61 -9 0 5 -8 6 -17 3 -14 -5 -14 -8 -2
-11 7 -3 17 -10 21 -15 4 -7 17 -6 37 3 41 16 46 10 27 -34 -8 -20 -14 -36
-12 -36 3 0 66 99 66 105 0 13 -33 10 -59 -6z"/>
<path d="M2665 6410 c-8 -14 9 -34 23 -29 7 3 6 11 -3 22 -9 13 -15 15 -20 7z"/>
<path d="M2916 6383 c-12 -12 -6 -40 12 -57 18 -15 21 -15 47 9 16 13 26 27
22 31 -3 4 -13 1 -22 -6 -16 -13 -50 -6 -40 9 6 11 -9 23 -19 14z"/>
<path d="M6350 6343 c0 -13 5 -23 10 -23 13 0 13 11 0 30 -8 12 -10 11 -10 -7z"/>
<path d="M2817 6235 c-17 -35 -11 -50 17 -39 18 7 22 24 6 24 -6 0 -8 11 -4
25 9 35 1 31 -19 -10z"/>
<path d="M5876 5842 c-3 -6 -1 -14 5 -17 14 -9 20 -2 10 14 -6 8 -11 9 -15 3z"/>
<path d="M5899 5792 c15 -29 38 -45 46 -32 3 6 11 8 16 5 5 -4 9 3 9 14 0 19
-2 20 -21 9 -17 -11 -22 -10 -33 5 -17 23 -29 22 -17 -1z"/>
<path d="M6031 5775 c0 -17 -7 -37 -13 -44 -11 -10 -10 -11 3 -6 9 3 22 -1 29
-10 7 -8 26 -15 43 -15 29 0 29 1 13 19 -9 10 -21 32 -26 47 l-8 29 -1 -28
c-1 -37 -24 -31 -32 9 l-7 29 -1 -30z"/>
<path d="M6254 5768 c20 -99 41 -177 53 -198 10 -18 12 -19 9 -5 -32 123 -46
184 -46 203 0 12 -5 22 -10 22 -6 0 -8 -10 -6 -22z"/>
<path d="M5970 5740 c1 -8 7 -24 15 -34 19 -25 19 -16 0 20 -8 16 -15 22 -15
14z"/>
<path d="M6180 5644 c-13 -33 -13 -30 9 -51 10 -10 21 -27 24 -38 4 -18 5 -18
6 3 0 12 5 22 11 22 5 0 7 7 4 15 -4 9 -14 14 -23 13 -12 -2 -16 5 -15 30 2
39 -3 41 -16 6z"/>
<path d="M2526 5521 c-21 -23 -34 -101 -17 -101 6 0 11 8 11 18 1 21 19 47 40
55 12 4 11 6 -2 6 -21 1 -23 12 -6 29 7 7 8 12 2 12 -6 0 -19 -9 -28 -19z"/>
<path d="M3495 5406 c-109 -36 -217 -102 -392 -243 -76 -60 -106 -92 -162
-176 -38 -56 -80 -113 -95 -126 -14 -14 -26 -30 -26 -37 0 -29 -29 -37 -103
-27 -40 5 -76 12 -82 14 -5 2 -12 -1 -15 -6 -3 -6 30 -21 73 -34 52 -17 77
-30 78 -40 0 -11 4 -9 11 6 10 22 35 33 76 33 25 0 28 -10 10 -29 -9 -9 -2 -8
19 3 18 9 38 16 46 16 7 0 34 13 60 29 70 45 119 57 148 37 19 -13 25 -14 38
-2 20 17 90 40 98 32 4 -3 1 -18 -6 -32 l-11 -26 29 21 c16 12 41 21 55 21 14
0 26 5 26 10 0 6 7 10 15 10 8 0 15 -9 15 -20 0 -27 33 -26 59 1 26 28 67 23
63 -8 -3 -21 -2 -22 24 -8 15 7 30 19 34 26 11 17 60 3 60 -18 0 -16 1 -16 13
0 14 20 145 37 277 37 62 0 96 -6 128 -20 23 -10 58 -22 77 -26 30 -5 35 -3
39 17 8 33 10 82 8 159 l-2 66 -74 56 c-66 50 -84 58 -158 73 -121 25 -296 17
-400 -18 -144 -49 -338 -156 -514 -283 -93 -67 -188 -114 -202 -100 -2 3 -1
14 3 26 6 20 118 120 135 120 5 0 15 6 22 13 7 7 49 37 93 66 116 78 304 165
430 200 107 30 117 31 365 36 271 4 315 9 342 32 15 14 16 17 2 39 -9 13 -36
30 -62 38 -87 28 -356 70 -462 72 -95 2 -115 0 -205 -30z m387 -300 c54 -13
122 -38 151 -55 30 -17 61 -31 68 -31 34 -1 60 -39 66 -95 7 -65 -6 -72 -47
-26 -37 42 -160 128 -227 158 -105 47 -311 35 -458 -28 -11 -4 -51 -22 -89
-39 -38 -16 -77 -30 -87 -30 -9 0 -19 -4 -21 -9 -1 -5 -37 -29 -79 -55 -76
-46 -129 -59 -129 -32 0 19 18 32 99 75 39 20 105 55 148 77 43 23 118 52 166
64 49 12 103 28 120 35 53 23 207 19 319 -9z m-252 -71 c-14 -16 -90 -21 -90
-6 0 10 27 17 74 20 24 1 27 -1 16 -14z m80 -15 c0 -25 -33 -72 -56 -80 -34
-13 -140 -23 -170 -16 -43 11 -26 23 43 31 82 9 103 16 136 49 27 27 47 34 47
16z m190 -30 c33 -17 60 -33 60 -36 0 -21 -26 -45 -58 -53 -48 -14 -192 -26
-192 -17 0 4 20 32 45 63 25 30 45 59 45 64 0 17 41 9 100 -21z m-552 -88 c2
-7 -6 -12 -17 -12 -21 0 -27 11 -14 24 9 9 26 2 31 -12z"/>
<path d="M2519 5358 c-32 -34 -57 -64 -54 -66 2 -3 11 0 19 7 9 7 29 9 55 5
44 -7 55 7 29 35 -10 10 -10 15 -1 18 7 2 9 11 6 19 -3 8 0 21 7 29 7 8 9 15
5 15 -4 0 -33 -28 -66 -62z"/>
<path d="M5010 5389 c-129 -19 -330 -83 -330 -106 0 -6 -2 -18 -5 -25 -8 -21
111 -38 273 -39 75 0 160 -4 187 -9 28 -5 73 -12 100 -15 103 -11 191 -28 222
-41 17 -8 34 -14 38 -14 19 0 106 -47 145 -78 59 -48 220 -210 220 -222 0 -15
-15 -12 -41 9 -66 51 -244 163 -317 199 -149 74 -383 131 -475 117 -73 -11
-270 -66 -309 -86 -21 -10 -39 -19 -42 -19 -10 0 8 46 22 58 9 6 11 12 5 12
-6 0 -34 -35 -62 -77 -42 -62 -53 -88 -57 -133 -6 -57 13 -120 50 -165 16 -19
16 -18 1 12 -19 41 -11 81 19 88 80 18 229 24 371 14 54 -4 60 -6 59 -26 -1
-23 7 -22 38 5 21 17 68 8 68 -13 0 -8 6 -15 14 -15 8 0 17 -6 20 -12 4 -9 8
-10 11 -2 3 6 12 20 19 30 13 17 15 16 31 -18 17 -35 45 -43 45 -12 0 25 35
15 70 -21 38 -39 54 -45 45 -15 -10 31 45 27 73 -5 25 -28 42 -32 42 -10 0 23
24 18 51 -11 13 -14 38 -33 54 -41 17 -9 35 -22 40 -30 8 -10 18 -11 43 -4 20
6 41 6 50 1 25 -13 122 -40 142 -40 10 0 27 -11 38 -25 16 -20 21 -22 26 -10
4 10 15 13 38 10 31 -4 31 -4 -5 6 -40 12 -49 29 -51 98 -1 33 2 37 51 61 73
36 80 47 9 16 -32 -14 -64 -26 -70 -26 -6 0 -42 62 -80 138 -75 149 -148 248
-243 329 -98 84 -130 104 -185 118 -29 7 -87 22 -128 33 -81 21 -230 26 -330
11z m121 -299 c36 -20 19 -29 -53 -28 -40 1 -88 -2 -105 -6 -22 -5 -33 -4 -33
4 0 31 146 54 191 30z m201 -42 c37 -17 37 -42 1 -35 -83 16 -137 34 -141 46
-4 12 6 13 54 8 33 -4 71 -12 86 -19z m-122 -28 c10 -6 12 -12 5 -19 -26 -26
-116 -17 -121 12 -2 14 6 17 49 17 29 0 59 -5 67 -10z m303 -56 c51 -31 101
-60 112 -65 49 -22 178 -125 173 -138 -6 -17 -73 15 -150 72 -42 31 -89 62
-103 67 -33 12 -138 79 -147 94 -29 43 12 33 115 -30z m-591 2 c-3 -27 0 -37
17 -45 38 -21 22 -30 -46 -28 -74 3 -82 11 -64 60 7 17 22 30 43 36 52 15 54
14 50 -23z m358 -37 c0 -6 -13 -16 -30 -22 -16 -6 -30 -18 -30 -25 0 -11 -14
-12 -67 -7 -72 7 -76 8 -79 30 -2 17 23 28 32 14 3 -6 17 -8 31 -4 14 3 44 8
66 12 23 3 44 7 46 9 9 8 31 3 31 -7z m-613 -15 c4 -11 -2 -23 -18 -35 -36
-28 -49 -24 -49 16 0 32 2 35 30 35 19 0 33 -6 37 -16z m758 -4 c3 -11 13 -20
20 -20 17 0 39 -37 26 -44 -21 -14 -126 -5 -143 12 -10 10 55 72 77 72 7 0 17
-9 20 -20z m531 -215 c8 -13 14 -31 12 -40 -3 -13 -9 -12 -48 7 -49 25 -61 44
-33 51 38 10 53 6 69 -18z"/>
<path d="M6780 4912 c-19 -15 -56 -40 -82 -55 -26 -15 -50 -32 -53 -37 -3 -5
7 -2 23 7 28 16 31 16 55 0 15 -9 36 -17 48 -17 19 0 20 -4 15 -34 -6 -34 -6
-34 18 -23 26 13 53 78 58 142 3 36 1 40 -22 43 -16 2 -38 -8 -60 -26z"/>
<path d="M1697 4903 c-20 -14 -37 -33 -37 -41 0 -25 32 -127 43 -133 5 -4 13
-24 17 -45 l8 -39 1 45 c0 25 -4 62 -10 83 -14 53 -1 68 57 60 28 -4 49 -1 59
7 25 21 65 -12 65 -55 0 -32 2 -34 19 -23 15 9 34 5 102 -23 46 -19 88 -35 93
-37 24 -7 -42 42 -85 64 -25 12 -72 46 -103 74 -52 48 -133 90 -174 90 -9 0
-34 -12 -55 -27z"/>
<path d="M4770 4779 c-19 -3 -26 -7 -15 -8 24 -1 178 -48 220 -66 17 -8 53
-19 80 -25 28 -7 77 -21 110 -32 40 -13 92 -21 158 -22 71 -2 101 -6 107 -16
7 -11 19 -12 73 -2 35 7 83 12 106 12 30 0 41 4 41 15 0 19 -6 19 -87 -2 -56
-14 -76 -14 -123 -5 -31 7 -72 12 -91 12 -50 0 -284 47 -322 64 -17 9 -63 25
-102 36 -38 11 -81 26 -95 33 -15 8 -38 11 -60 6z"/>
<path d="M3968 4753 c7 -3 16 -2 19 1 4 3 -2 6 -13 5 -11 0 -14 -3 -6 -6z"/>
<path d="M3918 4743 c6 -2 18 -2 25 0 6 3 1 5 -13 5 -14 0 -19 -2 -12 -5z"/>
<path d="M3878 4733 c7 -3 16 -2 19 1 4 3 -2 6 -13 5 -11 0 -14 -3 -6 -6z"/>
<path d="M1839 4657 c-28 -34 -71 -118 -65 -124 2 -2 10 11 19 29 9 18 26 49
39 68 48 70 50 82 7 27z"/>
<path d="M3195 4680 c-29 -4 29 -7 140 -7 132 0 170 2 125 7 -80 9 -198 9
-265 0z"/>
<path d="M3538 4673 c6 -2 18 -2 25 0 6 3 1 5 -13 5 -14 0 -19 -2 -12 -5z"/>
<path d="M6896 4615 c-9 -26 -7 -32 5 -12 6 10 9 21 6 23 -2 3 -7 -2 -11 -11z"/>
<path d="M6837 4487 c-52 -100 -62 -133 -22 -75 28 41 77 148 73 159 -2 4 -25
-33 -51 -84z"/>
<path d="M6442 4540 c-12 -5 -36 -22 -53 -38 l-30 -28 19 -24 c15 -19 18 -31
11 -54 -10 -34 -4 -49 6 -17 15 49 35 13 37 -65 0 -33 3 -43 8 -29 7 21 -2
107 -14 137 -10 23 24 40 72 36 44 -4 58 -27 71 -115 l9 -58 1 65 c1 84 -14
136 -49 172 -30 29 -49 33 -88 18z"/>
<path d="M1718 4470 c-2 -25 -1 -92 3 -150 l5 -105 2 81 c2 82 19 191 33 209
4 6 -2 10 -16 10 -20 0 -23 -6 -27 -45z"/>
<path d="M1989 4448 c-25 -24 -41 -40 -35 -35 28 20 148 -5 168 -36 5 -7 6
-43 2 -82 -5 -64 -4 -73 20 -108 l26 -38 -52 -61 c-53 -61 -90 -84 -111 -71
-7 4 -5 -4 4 -17 14 -22 24 -25 71 -24 62 1 118 31 118 65 0 35 30 22 31 -13
0 -18 2 -40 3 -48 2 -8 6 -81 10 -162 7 -137 6 -147 -11 -151 -16 -4 -16 -5 0
-6 14 -1 17 -11 17 -65 0 -193 41 -391 108 -521 41 -79 172 -221 271 -295 l60
-45 1 -125 c1 -199 -43 -573 -78 -661 -9 -21 -25 -31 -77 -48 -36 -12 -112
-50 -168 -85 -56 -35 -123 -75 -150 -90 -53 -30 -152 -154 -193 -242 -24 -52
-24 -52 -126 -90 -95 -35 -106 -43 -167 -107 -36 -38 -85 -89 -108 -112 -40
-40 -42 -44 -32 -76 28 -89 25 -93 -43 -58 -40 21 -49 21 -136 3 -26 -5 -38
-2 -56 15 l-22 21 -53 -20 c-30 -10 -56 -22 -60 -25 -3 -4 -5 -51 -4 -106 l2
-100 -27 -11 c-83 -34 -159 -71 -196 -96 -24 -16 -58 -32 -77 -36 -35 -6 -92
-48 -184 -135 -45 -43 -356 -280 -379 -290 -5 -2 -24 -16 -40 -32 -17 -15 -42
-37 -54 -48 -20 -17 -23 -25 -15 -48 10 -29 56 -63 69 -50 4 4 0 15 -9 25 -10
10 -17 26 -17 35 0 17 76 81 260 219 63 47 156 124 207 171 51 46 108 92 127
101 43 20 100 21 116 1 20 -24 48 -18 147 30 103 51 119 54 128 25 3 -11 11
-20 16 -20 5 0 12 0 16 0 9 0 8 50 -1 72 -4 9 -1 27 7 40 27 42 30 82 7 103
-28 25 -25 42 11 76 35 33 84 38 127 15 15 -8 44 -23 65 -32 21 -9 50 -30 65
-45 15 -16 34 -29 42 -29 8 0 25 -15 37 -34 12 -19 35 -44 52 -56 l31 -21 0
36 c0 19 -9 61 -20 92 -24 69 -26 103 -5 103 8 0 42 -26 76 -57 44 -41 70 -76
90 -121 35 -76 35 -83 8 -108 -31 -28 -49 -68 -49 -109 0 -40 -10 -43 -49 -16
-14 11 -53 27 -86 36 -101 28 -167 57 -232 102 -52 36 -63 40 -73 28 -16 -20
6 -55 55 -85 46 -28 202 -72 235 -65 40 8 119 -42 150 -94 14 -24 39 -51 56
-60 25 -13 36 -30 57 -91 14 -41 29 -90 32 -108 4 -18 13 -45 20 -60 10 -20
11 -47 6 -102 -5 -41 -6 -77 -4 -79 20 -24 45 144 38 249 -7 83 -16 133 -46
233 -26 89 -19 101 60 91 69 -8 87 -23 107 -88 21 -66 30 -317 16 -411 -11
-66 -10 -86 5 -72 12 12 33 130 40 220 3 48 10 90 15 93 4 3 22 -2 40 -10 43
-22 57 -20 68 9 11 29 26 31 112 9 73 -18 128 -43 215 -95 33 -21 78 -46 100
-56 21 -11 47 -25 58 -31 11 -7 76 -37 145 -68 69 -30 129 -60 134 -65 6 -5
64 -9 130 -9 l121 1 -160 65 c-88 36 -186 74 -217 85 -56 18 -107 39 -196 81
-58 27 -186 112 -247 163 -27 23 -78 61 -113 85 -44 31 -65 52 -69 70 -3 15
-25 49 -50 75 -24 26 -55 70 -69 97 -33 65 -51 72 -160 60 -49 -5 -93 -7 -97
-5 -5 3 -6 21 -2 42 17 103 -93 311 -165 311 -12 0 -20 7 -20 18 0 21 57 92
74 92 6 0 28 -17 47 -37 26 -28 41 -57 53 -105 19 -69 27 -81 113 -159 56 -51
256 -197 282 -206 9 -4 52 -29 96 -58 155 -99 181 -115 255 -148 103 -47 338
-132 435 -156 44 -11 168 -34 275 -51 107 -17 220 -35 250 -41 91 -16 387 -32
515 -26 147 6 578 77 690 114 83 27 239 92 278 117 12 8 33 17 47 21 14 4 84
33 155 65 72 31 154 65 182 75 32 12 48 22 41 26 -21 13 10 55 64 88 27 17 51
31 54 31 9 0 3 -37 -8 -48 -8 -8 -8 -12 -1 -12 6 0 20 23 31 50 23 56 33 61
52 25 22 -42 -12 -235 -69 -386 -44 -117 -168 -272 -308 -388 l-38 -31 195 0
196 0 27 64 c29 65 99 151 152 186 20 14 25 20 13 20 -12 0 -16 8 -16 33 1 17
-3 48 -7 67 -10 45 -9 75 6 185 13 103 -2 348 -27 432 -12 39 -12 52 -2 72 11
20 10 25 -11 42 -15 13 -29 43 -42 94 -10 41 -25 88 -34 105 -27 52 -156 253
-186 290 -16 19 -29 40 -29 47 0 16 34 17 62 2 36 -19 231 -223 278 -289 25
-35 91 -122 147 -192 56 -70 124 -159 152 -199 28 -40 51 -65 51 -56 0 10 4
17 8 17 4 0 -13 62 -38 138 -40 122 -56 153 -134 272 -49 74 -114 161 -145
193 -31 32 -77 93 -102 135 -31 52 -68 95 -113 133 -75 64 -191 129 -230 129
-32 0 -33 15 -11 169 40 272 83 380 166 415 45 19 199 154 199 174 0 10 26 45
58 78 98 99 170 229 217 389 14 48 25 95 25 104 0 9 7 36 16 61 25 71 64 267
64 321 0 51 10 60 36 34 14 -14 89 -22 163 -17 32 2 79 47 102 98 10 22 32
103 49 179 17 76 38 152 46 169 l15 31 -20 -25 c-24 -28 -53 -119 -75 -232
-23 -120 -47 -165 -98 -188 -24 -11 -58 -20 -76 -20 -36 0 -92 25 -92 41 0 6
-9 8 -22 4 -20 -7 -21 -5 -15 46 4 30 11 117 17 194 7 77 13 142 16 144 2 2
10 -1 17 -7 11 -9 13 -6 9 19 -3 22 -7 27 -13 18 -7 -11 -11 -10 -22 5 -12 16
-15 4 -26 -95 -49 -449 -71 -584 -121 -764 -37 -130 -67 -213 -110 -300 -57
-117 -62 -124 -195 -257 -75 -76 -142 -138 -149 -138 -6 0 -62 -25 -124 -55
-63 -30 -122 -55 -132 -55 -10 0 -31 -5 -47 -11 -15 -6 -46 -12 -68 -14 -22
-1 -75 -19 -118 -39 -113 -53 -121 -56 -247 -76 -63 -11 -134 -26 -156 -34
-56 -19 -242 -52 -400 -71 -138 -16 -367 -9 -499 15 -267 48 -472 115 -610
199 -37 23 -74 41 -84 41 -28 1 -193 93 -337 190 -279 187 -442 340 -506 471
-67 142 -86 249 -93 531 -5 180 -20 493 -30 618 -2 25 -4 51 -5 58 0 6 -4 12
-8 12 -16 0 -32 -51 -32 -104 0 -63 -18 -86 -43 -58 -31 34 -51 122 -27 122 6
0 10 13 10 28 0 29 35 72 59 72 24 0 -7 27 -62 55 -76 38 -113 34 -168 -17z
m861 -1828 c121 -81 212 -131 310 -169 47 -19 137 -58 200 -86 263 -120 307
-138 400 -164 124 -34 318 -72 435 -84 136 -15 361 -15 435 0 30 6 120 21 200
33 80 12 156 28 170 35 14 7 51 18 83 25 77 16 118 33 172 74 24 19 68 42 97
51 29 10 80 32 113 50 67 36 111 50 119 36 3 -5 -6 -35 -20 -67 -92 -209 -152
-877 -100 -1132 10 -51 22 -94 25 -97 4 -2 5 26 3 63 l-5 67 41 -35 c22 -19
63 -51 92 -70 131 -88 144 -109 127 -198 -6 -34 -15 -62 -18 -62 -4 0 -16 -15
-27 -34 -11 -19 -41 -46 -66 -61 -81 -47 -397 -145 -691 -213 -74 -17 -270
-41 -398 -48 -118 -7 -565 10 -704 27 -188 22 -356 62 -668 160 -88 28 -205
64 -260 81 -219 69 -477 208 -589 318 l-30 29 96 193 c145 289 171 351 284
668 14 40 24 88 24 125 0 33 7 123 15 200 8 77 14 183 13 235 -1 52 1 101 5
108 10 14 5 16 117 -58z m-467 -991 c8 -13 -3 -36 -48 -105 -32 -49 -70 -105
-85 -124 -59 -76 -74 -180 -41 -274 17 -49 17 -55 3 -69 -20 -20 -5 -58 44
-109 31 -33 34 -42 28 -73 -4 -21 -12 -35 -21 -35 -22 0 -186 169 -207 214
-15 32 -18 55 -14 120 6 84 20 137 71 266 36 92 40 98 84 106 22 4 53 24 86
55 53 50 81 58 100 28z m27 -648 c0 -21 -19 -17 -81 17 -71 39 -94 66 -78 95
8 14 20 8 84 -44 41 -33 75 -64 75 -68z m-546 33 c9 -3 13 -10 10 -15 -3 -5 0
-9 6 -9 7 0 10 -7 6 -15 -3 -8 -1 -15 4 -15 6 0 10 -11 10 -26 0 -22 -4 -25
-27 -22 -56 7 -92 65 -61 96 13 13 28 15 52 6z m508 -169 c14 -14 47 -35 74
-46 27 -12 62 -33 78 -46 16 -13 50 -33 75 -45 25 -11 73 -32 106 -48 91 -42
212 -85 295 -105 41 -9 87 -23 101 -31 59 -30 298 -84 371 -83 40 0 100 -5
133 -11 140 -25 362 -41 485 -34 128 6 342 6 440 1 30 -2 73 2 95 9 61 18 86
23 161 30 38 3 94 15 124 25 62 20 172 49 189 49 6 0 11 -7 11 -16 0 -34 -213
-105 -405 -134 -71 -10 -184 -29 -250 -40 -66 -12 -169 -23 -230 -24 -144 -5
-387 9 -500 28 -49 9 -153 25 -230 36 -178 26 -267 45 -380 81 -95 29 -216 73
-250 88 -11 6 -31 13 -45 16 -107 29 -500 277 -500 315 0 18 27 10 52 -15z
m-196 -93 c19 -13 99 -116 112 -145 6 -15 17 -25 22 -22 6 3 10 2 10 -4 0 -21
-22 -21 -66 1 -26 12 -50 33 -55 45 -10 27 -6 26 -128 23 l-93 -2 -40 -39
c-44 -43 -50 -45 -67 -26 -25 31 19 106 84 140 53 29 194 47 221 29z m-246
-288 c0 -21 -28 -17 -40 7 -7 11 -9 28 -5 37 6 15 9 14 26 -7 10 -13 19 -29
19 -37z"/>
<path d="M1912 4349 c-37 -63 -39 -126 -9 -190 14 -30 39 -70 56 -89 29 -33
28 -29 -14 53 -52 101 -58 153 -24 218 27 53 20 59 -9 8z"/>
<path d="M6773 4345 c-3 -9 -3 -18 -1 -21 3 -3 8 4 11 16 6 23 -1 27 -10 5z"/>
<path d="M3727 4339 c-41 -10 -164 -84 -210 -128 -43 -39 -110 -121 -105 -127
3 -2 21 10 41 28 83 78 169 125 237 129 37 3 45 0 50 -16 13 -45 34 -74 69
-93 48 -27 227 -65 268 -57 18 3 42 1 53 -5 15 -8 53 -8 138 1 64 7 132 12
150 12 17 0 32 4 32 9 0 4 -7 8 -15 8 -21 0 -19 13 5 35 14 12 27 16 47 11 49
-12 176 -6 201 10 32 21 30 75 -5 114 -28 31 -29 31 -78 20 -70 -15 -120 -51
-161 -115 -43 -68 -73 -88 -130 -88 -73 0 -103 30 -145 145 -15 42 -29 62 -53
78 -47 28 -107 27 -143 -4 -35 -29 -71 -102 -57 -116 16 -16 182 -32 204 -20
43 23 56 -19 14 -46 -19 -13 -28 -14 -37 -5 -6 6 -32 11 -57 11 -75 0 -160 20
-222 51 -65 33 -70 47 -39 105 20 36 18 65 -3 63 -6 -1 -28 -5 -49 -10z m953
-149 c13 -9 12 -12 -4 -25 -25 -19 -86 -20 -86 -2 0 33 56 49 90 27z"/>
<path d="M4813 4296 c12 -17 15 -45 14 -97 l-2 -72 -35 -13 c-19 -7 -74 -13
-122 -13 -48 -1 -90 -5 -93 -11 -3 -5 -3 -10 2 -10 4 -1 39 -5 77 -10 55 -7
76 -5 97 6 16 8 37 14 48 14 14 0 27 16 46 56 14 30 29 54 33 52 74 -34 102
-50 107 -58 3 -5 14 -10 23 -10 9 0 28 -12 44 -27 25 -24 97 -57 106 -49 1 2
-16 15 -40 29 -48 28 -145 118 -202 187 -34 41 -38 43 -58 31 -18 -11 -22 -11
-30 3 -5 9 -14 16 -20 16 -6 0 -4 -10 5 -24z"/>
<path d="M6746 4263 c-6 -14 -5 -15 5 -6 7 7 10 15 7 18 -3 3 -9 -2 -12 -12z"/>
<path d="M4245 4238 c-4 -10 -4 -26 0 -35 8 -17 8 -17 12 0 3 9 3 25 0 35 -4
16 -4 16 -12 0z"/>
<path d="M6711 4189 c-13 -27 -21 -52 -18 -55 2 -2 14 18 26 47 29 66 21 74
-8 8z"/>
<path d="M6514 4129 c-37 -41 -105 -81 -129 -76 -20 3 -23 1 -15 -13 11 -21
54 -50 74 -50 36 0 64 23 76 64 7 22 16 53 21 69 10 32 -1 35 -27 6z"/>
<path d="M2941 3850 c-23 -23 -31 -43 -37 -86 -7 -62 0 -143 17 -192 17 -48
32 -40 25 13 -6 37 -4 45 8 45 13 0 14 5 5 27 -18 47 10 132 59 182 12 13 12
17 -4 28 -26 19 -39 16 -73 -17z"/>
<path d="M3991 3858 c-62 -9 -206 -55 -329 -105 -68 -27 -103 -34 -185 -39
-56 -4 -109 -10 -118 -15 -18 -9 -73 31 -99 73 l-18 29 -28 -25 c-23 -20 -25
-25 -11 -26 11 0 17 -8 17 -25 0 -19 6 -26 28 -30 15 -3 45 -15 67 -26 77 -37
147 -48 329 -48 136 -1 184 -5 218 -18 33 -12 81 -16 203 -17 96 -1 209 -8
282 -19 101 -15 136 -16 200 -7 43 5 188 15 323 20 235 10 248 12 330 41 47
17 98 33 113 36 16 3 31 12 34 19 10 26 38 14 61 -26 12 -21 22 -48 22 -60 0
-12 5 -18 10 -15 17 10 11 81 -11 132 l-21 48 -19 -23 c-13 -17 -24 -22 -39
-17 -11 4 -37 1 -58 -6 -20 -7 -48 -13 -62 -15 -14 -1 -52 -5 -85 -9 -119 -14
-292 30 -483 122 -73 36 -133 40 -220 15 -60 -17 -79 -28 -122 -72 -43 -42
-50 -53 -40 -65 17 -21 21 -20 79 26 58 46 131 73 176 63 38 -8 140 -50 172
-71 l24 -16 -23 -24 c-31 -34 -64 -49 -123 -58 -27 -4 -55 -11 -61 -16 -14
-11 -141 5 -187 25 -18 7 -41 21 -51 31 -17 17 -21 17 -69 2 -33 -10 -95 -17
-168 -19 -110 -2 -117 -1 -146 22 -17 14 -37 30 -46 35 -9 6 -19 22 -22 36
-10 39 45 68 144 75 63 5 84 3 124 -15 27 -12 60 -21 74 -21 l25 0 -25 42
c-22 38 -31 44 -79 53 -31 7 -75 8 -107 3z"/>
<path d="M5550 3839 c0 -8 15 -24 34 -36 32 -21 33 -22 26 -75 -8 -55 -30
-112 -63 -161 -11 -16 -16 -31 -13 -34 3 -4 6 -1 6 5 0 6 19 22 43 36 57 34
83 71 91 131 7 56 -5 88 -44 116 -35 25 -80 35 -80 18z"/>
<path d="M3140 3695 c-7 -9 -11 -17 -9 -20 3 -2 10 5 17 15 14 24 10 26 -8 5z"/>
<path d="M3490 3562 c0 -16 109 -72 208 -106 57 -20 107 -36 111 -36 4 0 7 10
6 23 -2 31 -97 75 -178 84 -34 3 -79 14 -99 24 -41 21 -48 23 -48 11z"/>
<path d="M4955 3511 c-131 -47 -275 -91 -295 -91 -10 0 -26 -7 -35 -16 -10
-10 -27 -15 -46 -12 -17 3 -26 1 -21 -4 11 -11 224 7 250 21 9 5 44 14 77 21
56 12 195 85 195 103 0 14 -45 6 -125 -22z"/>
<path d="M4473 3383 c9 -2 23 -2 30 0 6 3 -1 5 -18 5 -16 0 -22 -2 -12 -5z"/>
<path d="M3948 3359 c-41 -10 160 -34 463 -56 64 -5 81 -2 115 15 l39 21 -63
1 c-35 0 -73 6 -85 13 -23 12 -420 18 -469 6z"/>
<path d="M5658 678 c-13 -18 -41 -59 -62 -91 -21 -32 -47 -62 -58 -68 -11 -6
-17 -13 -14 -16 13 -13 68 44 116 118 52 81 64 118 18 57z"/>
<path d="M5639 513 c-13 -16 -12 -17 4 -4 9 7 17 15 17 17 0 8 -8 3 -21 -13z"/>
<path d="M5599 483 c-13 -16 -12 -17 4 -4 9 7 17 15 17 17 0 8 -8 3 -21 -13z"/>
<path d="M5495 399 c-38 -33 -90 -71 -115 -84 -49 -26 -48 -33 3 -12 37 16
153 107 174 137 8 11 13 20 11 20 -2 0 -34 -27 -73 -61z"/>
<path d="M5409 441 c-21 -4 -69 -26 -108 -50 -109 -64 -395 -153 -450 -138
-11 3 -98 -12 -193 -33 -95 -21 -192 -41 -215 -45 -23 -3 -61 -20 -84 -37 -37
-27 -40 -32 -26 -45 35 -36 267 -39 407 -5 47 11 110 26 140 32 92 20 192 50
255 76 102 43 161 74 143 74 -22 0 -23 23 -3 40 8 7 15 21 15 32 0 13 12 24
38 34 20 8 46 19 57 25 21 10 74 49 65 48 -3 -1 -21 -5 -41 -8z"/>
</g>
</svg>
